<svg width="36" height="28" viewBox="0 0 36 28" fill="none" xmlns="http://www.w3.org/2000/svg" xmlns:xlink="http://www.w3.org/1999/xlink">
<path d="M1.333,1.667L1.333,0.467C0.671,0.467 0.133,1.004 0.133,1.667L1.333,1.667ZM34.667,1.667L35.867,1.667C35.867,1.004 35.329,0.467 34.667,0.467L34.667,1.667ZM34.667,10L34.667,11.2C35.329,11.2 35.867,10.663 35.867,10L34.667,10ZM1.333,10L0.133,10C0.133,10.663 0.671,11.2 1.333,11.2L1.333,10ZM1.333,2.867L34.667,2.867L34.667,0.467L1.333,0.467L1.333,2.867ZM33.467,1.667L33.467,10L35.867,10L35.867,1.667L33.467,1.667ZM34.667,8.8L1.333,8.8L1.333,11.2L34.667,11.2L34.667,8.8ZM2.533,10L2.533,1.667L0.133,1.667L0.133,10L2.533,10Z" fill="#22222F"/>
<line x1="16.8" y1="1.667" x2="16.8" y2="26.667" stroke="#22222F" stroke-width="1.2" stroke-miterlimit="3.999327" stroke-linecap="round" stroke-linejoin="round"/>
</svg>
