<svg width="34" height="32" viewBox="0 0 34 32" fill="none" xmlns="http://www.w3.org/2000/svg" xmlns:xlink="http://www.w3.org/1999/xlink">
<line x1="4.25" y1="7" x2="29.75" y2="7" stroke="#F84A3F" stroke-width="1" stroke-miterlimit="3.999327" stroke-linecap="round" stroke-linejoin="round"/>
<path d="M27.917,8C27.917,7.448 27.469,7 26.917,7C26.364,7 25.917,7.448 25.917,8L27.917,8ZM7.083,26.667L6.083,26.667L7.083,26.667ZM8.083,8C8.083,7.448 7.636,7 7.083,7C6.531,7 6.083,7.448 6.083,8L8.083,8ZM10.333,8C10.333,8.552 10.781,9 11.333,9C11.886,9 12.333,8.552 12.333,8L10.333,8ZM14.167,2.667L14.167,1.667L14.167,2.667ZM21.667,8C21.667,8.552 22.114,9 22.667,9C23.219,9 23.667,8.552 23.667,8L21.667,8ZM25.917,8L25.917,26.667L27.917,26.667L27.917,8L25.917,8ZM25.917,26.667C25.917,27.088 25.739,27.506 25.401,27.824L26.772,29.28C27.497,28.598 27.917,27.659 27.917,26.667L25.917,26.667ZM25.401,27.824C25.062,28.144 24.589,28.333 24.083,28.333L24.083,30.333C25.081,30.333 26.049,29.961 26.772,29.28L25.401,27.824ZM24.083,28.333L9.917,28.333L9.917,30.333L24.083,30.333L24.083,28.333ZM9.917,28.333C9.412,28.333 8.938,28.144 8.599,27.824L7.228,29.28C7.951,29.961 8.919,30.333 9.917,30.333L9.917,28.333ZM8.599,27.824C8.261,27.506 8.083,27.088 8.083,26.667L6.083,26.667C6.083,27.659 6.503,28.598 7.228,29.28L8.599,27.824ZM8.083,26.667L8.083,8L6.083,8L6.083,26.667L8.083,26.667ZM12.333,8L12.333,5.333L10.333,5.333L10.333,8L12.333,8ZM12.333,5.333C12.333,4.912 12.511,4.494 12.849,4.176L11.478,2.72C10.753,3.402 10.333,4.341 10.333,5.333L12.333,5.333ZM12.849,4.176C13.188,3.856 13.662,3.667 14.167,3.667L14.167,1.667C13.169,1.667 12.201,2.039 11.478,2.72L12.849,4.176ZM14.167,3.667L19.833,3.667L19.833,1.667L14.167,1.667L14.167,3.667ZM19.833,3.667C20.339,3.667 20.812,3.856 21.151,4.176L22.522,2.72C21.799,2.039 20.831,1.667 19.833,1.667L19.833,3.667ZM21.151,4.176C21.489,4.494 21.667,4.912 21.667,5.333L23.667,5.333C23.667,4.341 23.247,3.402 22.522,2.72L21.151,4.176ZM21.667,5.333L21.667,8L23.667,8L23.667,5.333L21.667,5.333Z" fill="#F84A3F"/>
<line x1="13.167" y1="14.667" x2="13.167" y2="22.667" stroke="#F84A3F" stroke-width="1" stroke-miterlimit="3.999327" stroke-linecap="round" stroke-linejoin="round"/>
<line x1="18.833" y1="14.667" x2="18.833" y2="22.667" stroke="#F84A3F" stroke-width="1" stroke-miterlimit="3.999327" stroke-linecap="round" stroke-linejoin="round"/>
</svg>
