<svg width="30" height="20" viewBox="0 0 30 20" fill="none" xmlns="http://www.w3.org/2000/svg" xmlns:xlink="http://www.w3.org/1999/xlink">
<path d="M28.533,2C28.533,1.337 27.996,0.8 27.333,0.8C26.671,0.8 26.133,1.337 26.133,2L28.533,2ZM27.333,18.667L27.333,19.867C27.996,19.867 28.533,19.329 28.533,18.667L27.333,18.667ZM0.667,18.667L-0.533,18.667C-0.533,19.329 0.004,19.867 0.667,19.867L0.667,18.667ZM1.867,2C1.867,1.337 1.329,0.8 0.667,0.8C0.004,0.8 -0.533,1.337 -0.533,2L1.867,2ZM26.133,2L26.133,18.667L28.533,18.667L28.533,2L26.133,2ZM27.333,17.467L0.667,17.467L0.667,19.867L27.333,19.867L27.333,17.467ZM1.867,18.667L1.867,2L-0.533,2L-0.533,18.667L1.867,18.667Z" fill="#22222F"/>
</svg>
