<svg width="16" height="12" viewBox="0 0 16 12" fill="none" xmlns="http://www.w3.org/2000/svg" xmlns:xlink="http://www.w3.org/1999/xlink">
<path d="M2,9.667L0.823,9.431C0.753,9.784 0.844,10.149 1.072,10.427C1.3,10.705 1.64,10.867 2,10.867L2,9.667ZM9.5,9.667L9.5,8.467L9.5,9.667ZM9.5,1.333L9.5,2.533L9.5,1.333ZM2,10.867L9.5,10.867L9.5,8.467L2,8.467L2,10.867ZM9.5,10.867C10.923,10.867 12.288,10.301 13.295,9.295L11.598,7.598C11.041,8.154 10.287,8.467 9.5,8.467L9.5,10.867ZM13.295,9.295C14.301,8.288 14.867,6.923 14.867,5.5L12.467,5.5C12.467,6.287 12.154,7.041 11.598,7.598L13.295,9.295ZM14.867,5.5C14.867,4.077 14.301,2.712 13.295,1.705L11.598,3.402C12.154,3.959 12.467,4.713 12.467,5.5L14.867,5.5ZM13.295,1.705C12.288,0.699 10.923,0.133 9.5,0.133L9.5,2.533C10.287,2.533 11.041,2.846 11.598,3.402L13.295,1.705ZM9.5,0.133C5.916,0.133 3.727,2.711 2.511,4.922C1.889,6.052 1.47,7.172 1.208,8.002C1.075,8.42 0.981,8.769 0.919,9.018C0.888,9.142 0.865,9.241 0.849,9.312C0.841,9.347 0.835,9.375 0.831,9.395C0.829,9.405 0.827,9.413 0.826,9.419C0.825,9.422 0.825,9.425 0.824,9.427C0.824,9.428 0.824,9.429 0.824,9.429C0.824,9.43 0.824,9.43 0.823,9.43C0.823,9.431 0.823,9.431 2,9.667C3.177,9.902 3.177,9.902 3.177,9.903C3.177,9.903 3.176,9.903 3.176,9.903C3.176,9.903 3.176,9.904 3.176,9.904C3.176,9.904 3.176,9.903 3.177,9.902C3.177,9.9 3.178,9.897 3.179,9.891C3.181,9.879 3.186,9.861 3.191,9.835C3.203,9.783 3.221,9.703 3.247,9.6C3.299,9.392 3.38,9.091 3.496,8.727C3.727,7.995 4.09,7.031 4.614,6.078C5.69,4.123 7.251,2.533 9.5,2.533L9.5,0.133Z" fill="#22222F"/>
</svg>
