<svg width="14" height="12" viewBox="0 0 14 12" fill="none" xmlns="http://www.w3.org/2000/svg" xmlns:xlink="http://www.w3.org/1999/xlink">
<path d="M12,9.667L12,10.867C12.359,10.867 12.7,10.705 12.928,10.427C13.156,10.149 13.247,9.784 13.177,9.431L12,9.667ZM4.5,9.667L4.5,8.467L4.5,9.667ZM0.333,5.5L-0.867,5.5L0.333,5.5ZM4.5,1.333L4.5,0.133L4.5,1.333ZM12,8.467L4.5,8.467L4.5,10.867L12,10.867L12,8.467ZM4.5,8.467C3.713,8.467 2.959,8.154 2.402,7.598L0.705,9.295C1.712,10.301 3.077,10.867 4.5,10.867L4.5,8.467ZM2.402,7.598C1.846,7.041 1.533,6.287 1.533,5.5L-0.867,5.5C-0.867,6.923 -0.301,8.288 0.705,9.295L2.402,7.598ZM1.533,5.5C1.533,4.713 1.846,3.959 2.402,3.402L0.705,1.705C-0.301,2.712 -0.867,4.077 -0.867,5.5L1.533,5.5ZM2.402,3.402C2.959,2.846 3.713,2.533 4.5,2.533L4.5,0.133C3.077,0.133 1.712,0.699 0.705,1.705L2.402,3.402ZM4.5,2.533C6.749,2.533 8.31,4.123 9.386,6.078C9.91,7.031 10.273,7.995 10.504,8.727C10.62,9.091 10.701,9.392 10.753,9.6C10.779,9.703 10.797,9.783 10.809,9.835C10.814,9.861 10.819,9.879 10.821,9.891C10.822,9.897 10.823,9.9 10.823,9.902C10.824,9.903 10.824,9.904 10.824,9.904C10.824,9.904 10.824,9.903 10.824,9.903C10.823,9.903 10.823,9.903 10.823,9.903C10.823,9.902 10.823,9.902 12,9.667C13.177,9.431 13.177,9.431 13.177,9.43C13.176,9.43 13.176,9.43 13.176,9.429C13.176,9.429 13.176,9.428 13.176,9.427C13.175,9.425 13.175,9.422 13.174,9.419C13.173,9.413 13.171,9.405 13.169,9.395C13.165,9.375 13.159,9.347 13.151,9.312C13.135,9.241 13.112,9.142 13.081,9.018C13.019,8.769 12.925,8.42 12.792,8.002C12.53,7.172 12.111,6.052 11.489,4.922C10.273,2.711 8.084,0.133 4.5,0.133L4.5,2.533Z" fill="#22222F"/>
</svg>
